<svg width="235" height="390" viewBox="0 0 235 390" fill="none" xmlns="http://www.w3.org/2000/svg">
<g clip-path="url(#clip0_6_326)">
<path d="M13.8198 100.07L234.53 0L234.15 86.38L0.0698242 192.51L0.379824 120.81C0.419824 112.71 6.42982 103.42 13.8098 100.08L13.8198 100.07Z" fill="#C22546"/>
<path d="M0.38 208.6L234.45 102.47L234.13 175C234.1 182.65 228.42 191.41 221.45 194.57L0 294.98L0.38 208.6Z" fill="#C22546"/>
<path d="M0.34 311.53L105.92 263.66L105.63 329.11C105.6 336.14 100.38 344.2 93.98 347.1L0 389.71L0.34 311.53Z" fill="#C22546"/>
<path d="M197.55 295.73C217.587 295.73 233.83 280.342 233.83 261.36C233.83 242.378 217.587 226.99 197.55 226.99C177.513 226.99 161.27 242.378 161.27 261.36C161.27 280.342 177.513 295.73 197.55 295.73Z" fill="#C22546"/>
</g>
<defs>
<clipPath id="clip0_6_326">
<rect width="234.53" height="389.71" fill="white"/>
</clipPath>
</defs>
</svg>
